<svg width="184" height="34" viewBox="0 0 184 34" fill="none" xmlns="http://www.w3.org/2000/svg">
<path d="M32.2193 18.3342L29.464 27.0471C29.3024 27.5563 28.8311 27.9037 28.2979 27.9037H19.7156C18.89 27.9037 18.2984 27.0988 18.5495 26.3076L21.3048 17.598C21.463 17.0854 21.9377 16.7415 22.4709 16.7415H31.0532C31.8788 16.7415 32.4704 17.5464 32.2193 18.3342Z" fill="white"/>
<path d="M43.0892 1.59254L40.3339 10.3056C40.1722 10.8147 39.701 11.1587 39.1678 11.1587H18.5599C18.0886 11.1587 17.6793 11.4614 17.5314 11.9017C17.528 11.9051 17.5245 11.912 17.5245 11.9154V11.9189L17.3181 12.5725V12.5759C17.3181 12.5793 17.3147 12.5862 17.3113 12.5897L14.2326 22.3209L10.9751 32.6266C10.8135 33.1357 10.3422 33.4831 9.8056 33.4831H1.22669C0.397685 33.4831 -0.190519 32.6782 0.0571413 31.887L3.08418 22.3209L6.34169 12.0152C6.50335 11.5061 6.97806 11.1587 7.51122 11.1587H16.9673C17.4419 11.1587 17.8616 10.8526 18.0026 10.402L18.3879 9.18426C18.3879 9.18082 18.3913 9.17393 18.3948 9.17049L21.0228 0.853056C21.1845 0.343961 21.6557 1.39092e-09 22.1923 1.39092e-09H41.9197C42.7486 -3.86352e-05 43.3403 0.804858 43.0892 1.59254Z" fill="#FFDD33"/>
<path d="M71.2515 7.70158V24.7416H67.9635V17.4696H60.2355V24.7416H56.9235V7.70158H60.2355V14.5896H67.9635V7.70158H71.2515ZM73.4896 21.0216C73.4896 20.2056 73.7136 19.4936 74.1616 18.8856C74.6256 18.2616 75.2656 17.7816 76.0816 17.4456C76.8976 17.1096 77.8336 16.9416 78.8896 16.9416C79.4176 16.9416 79.9536 16.9816 80.4976 17.0616C81.0416 17.1416 81.5136 17.2696 81.9136 17.4456V16.7736C81.9136 15.9736 81.6736 15.3576 81.1936 14.9256C80.7296 14.4936 80.0336 14.2776 79.1056 14.2776C78.4176 14.2776 77.7616 14.3976 77.1376 14.6376C76.5136 14.8776 75.8576 15.2296 75.1696 15.6936L74.1376 13.5816C74.9696 13.0376 75.8176 12.6296 76.6816 12.3576C77.5616 12.0856 78.4816 11.9496 79.4416 11.9496C81.2336 11.9496 82.6256 12.3976 83.6176 13.2936C84.6256 14.1896 85.1296 15.4696 85.1296 17.1336V21.1416C85.1296 21.4776 85.1856 21.7176 85.2976 21.8616C85.4256 22.0056 85.6256 22.0936 85.8976 22.1256V24.7416C85.6096 24.7896 85.3456 24.8296 85.1056 24.8616C84.8816 24.8936 84.6896 24.9096 84.5296 24.9096C83.8896 24.9096 83.4016 24.7656 83.0656 24.4776C82.7456 24.1896 82.5456 23.8376 82.4656 23.4216L82.3936 22.7736C81.8496 23.4776 81.1696 24.0216 80.3536 24.4056C79.5376 24.7896 78.7056 24.9816 77.8576 24.9816C77.0256 24.9816 76.2736 24.8136 75.6016 24.4776C74.9456 24.1256 74.4256 23.6536 74.0416 23.0616C73.6736 22.4536 73.4896 21.7736 73.4896 21.0216ZM81.3136 21.6696C81.4896 21.4776 81.6336 21.2856 81.7456 21.0936C81.8576 20.9016 81.9136 20.7256 81.9136 20.5656V19.2936C81.5296 19.1336 81.1136 19.0136 80.6656 18.9336C80.2176 18.8376 79.7936 18.7896 79.3936 18.7896C78.5616 18.7896 77.8736 18.9736 77.3296 19.3416C76.8016 19.6936 76.5376 20.1656 76.5376 20.7576C76.5376 21.0776 76.6256 21.3816 76.8016 21.6696C76.9776 21.9576 77.2336 22.1896 77.5696 22.3656C77.9056 22.5416 78.3056 22.6296 78.7696 22.6296C79.2496 22.6296 79.7216 22.5416 80.1856 22.3656C80.6496 22.1736 81.0256 21.9416 81.3136 21.6696ZM99.8229 24.7416H96.6069V17.6856C96.6069 16.6776 96.4309 15.9416 96.0789 15.4776C95.7269 15.0136 95.2389 14.7816 94.6149 14.7816C94.1829 14.7816 93.7429 14.8936 93.2949 15.1176C92.8629 15.3416 92.4709 15.6536 92.1189 16.0536C91.7669 16.4376 91.5109 16.8856 91.3509 17.3976V24.7416H88.1349V12.1656H91.0389V14.4936C91.3589 13.9496 91.7669 13.4936 92.2629 13.1256C92.7589 12.7416 93.3269 12.4536 93.9669 12.2616C94.6229 12.0536 95.3109 11.9496 96.0309 11.9496C96.8149 11.9496 97.4549 12.0936 97.9509 12.3816C98.4629 12.6536 98.8469 13.0296 99.1029 13.5096C99.3749 13.9736 99.5589 14.5016 99.6549 15.0936C99.7669 15.6856 99.8229 16.2856 99.8229 16.8936V24.7416ZM101.851 18.4536C101.851 17.2376 102.091 16.1416 102.571 15.1656C103.051 14.1736 103.715 13.3896 104.563 12.8136C105.411 12.2376 106.379 11.9496 107.467 11.9496C108.395 11.9496 109.227 12.1816 109.963 12.6456C110.715 13.0936 111.299 13.6696 111.715 14.3736V7.22158H114.931V21.1416C114.931 21.4776 114.987 21.7176 115.099 21.8616C115.211 22.0056 115.403 22.0936 115.675 22.1256V24.7416C115.115 24.8536 114.659 24.9096 114.307 24.9096C113.731 24.9096 113.251 24.7656 112.867 24.4776C112.499 24.1896 112.291 23.8136 112.243 23.3496L112.195 22.5576C111.731 23.3416 111.099 23.9416 110.299 24.3576C109.515 24.7736 108.691 24.9816 107.827 24.9816C106.963 24.9816 106.163 24.8136 105.427 24.4776C104.707 24.1416 104.075 23.6776 103.531 23.0856C103.003 22.4936 102.587 21.8056 102.283 21.0216C101.995 20.2216 101.851 19.3656 101.851 18.4536ZM111.715 20.1336V17.1336C111.555 16.6696 111.299 16.2536 110.947 15.8856C110.595 15.5176 110.203 15.2296 109.771 15.0216C109.339 14.7976 108.907 14.6856 108.475 14.6856C107.979 14.6856 107.531 14.7896 107.131 14.9976C106.731 15.2056 106.379 15.4856 106.075 15.8376C105.787 16.1896 105.563 16.5976 105.403 17.0616C105.259 17.5256 105.187 18.0136 105.187 18.5256C105.187 19.0376 105.267 19.5256 105.427 19.9896C105.603 20.4376 105.851 20.8296 106.171 21.1656C106.491 21.5016 106.859 21.7656 107.275 21.9576C107.707 22.1496 108.171 22.2456 108.667 22.2456C108.971 22.2456 109.275 22.1976 109.579 22.1016C109.899 21.9896 110.195 21.8456 110.467 21.6696C110.755 21.4776 111.003 21.2536 111.211 20.9976C111.435 20.7256 111.603 20.4376 111.715 20.1336ZM122.72 24.9816C121.648 24.9816 120.624 24.8056 119.648 24.4536C118.672 24.1016 117.832 23.5816 117.128 22.8936L118.28 20.8056C119.032 21.4136 119.768 21.8616 120.488 22.1496C121.224 22.4376 121.928 22.5816 122.6 22.5816C123.224 22.5816 123.72 22.4696 124.088 22.2456C124.472 22.0216 124.664 21.6856 124.664 21.2376C124.664 20.9336 124.56 20.7016 124.352 20.5416C124.144 20.3656 123.84 20.2136 123.44 20.0856C123.056 19.9576 122.584 19.8136 122.024 19.6536C121.096 19.3496 120.32 19.0536 119.696 18.7656C119.072 18.4776 118.6 18.1176 118.28 17.6856C117.976 17.2376 117.824 16.6696 117.824 15.9816C117.824 15.1496 118.032 14.4376 118.448 13.8456C118.88 13.2376 119.472 12.7656 120.224 12.4296C120.992 12.0936 121.888 11.9256 122.912 11.9256C123.808 11.9256 124.656 12.0696 125.456 12.3576C126.256 12.6296 126.984 13.0776 127.64 13.7016L126.344 15.7416C125.704 15.2456 125.096 14.8856 124.52 14.6616C123.944 14.4216 123.36 14.3016 122.768 14.3016C122.432 14.3016 122.112 14.3416 121.808 14.4216C121.52 14.5016 121.28 14.6376 121.088 14.8296C120.912 15.0056 120.824 15.2616 120.824 15.5976C120.824 15.9016 120.904 16.1416 121.064 16.3176C121.24 16.4776 121.496 16.6216 121.832 16.7496C122.184 16.8776 122.608 17.0216 123.104 17.1816C124.112 17.4696 124.96 17.7656 125.648 18.0696C126.352 18.3736 126.88 18.7496 127.232 19.1976C127.584 19.6296 127.76 20.2296 127.76 20.9976C127.76 22.2456 127.304 23.2216 126.392 23.9256C125.48 24.6296 124.256 24.9816 122.72 24.9816ZM141.635 24.7416H138.419V17.6856C138.419 16.7096 138.227 15.9816 137.843 15.5016C137.475 15.0216 136.963 14.7816 136.307 14.7816C135.923 14.7816 135.515 14.8936 135.083 15.1176C134.651 15.3416 134.259 15.6536 133.907 16.0536C133.571 16.4376 133.323 16.8856 133.163 17.3976V24.7416H129.947V7.22158H133.163V14.4936C133.627 13.6936 134.259 13.0696 135.059 12.6216C135.859 12.1736 136.731 11.9496 137.675 11.9496C138.491 11.9496 139.155 12.0936 139.667 12.3816C140.179 12.6536 140.579 13.0296 140.867 13.5096C141.155 13.9736 141.355 14.5016 141.467 15.0936C141.579 15.6696 141.635 16.2696 141.635 16.8936V24.7416ZM143.568 21.0216C143.568 20.2056 143.792 19.4936 144.24 18.8856C144.704 18.2616 145.344 17.7816 146.16 17.4456C146.976 17.1096 147.912 16.9416 148.968 16.9416C149.496 16.9416 150.032 16.9816 150.576 17.0616C151.12 17.1416 151.592 17.2696 151.992 17.4456V16.7736C151.992 15.9736 151.752 15.3576 151.272 14.9256C150.808 14.4936 150.112 14.2776 149.184 14.2776C148.496 14.2776 147.84 14.3976 147.216 14.6376C146.592 14.8776 145.936 15.2296 145.248 15.6936L144.216 13.5816C145.048 13.0376 145.896 12.6296 146.76 12.3576C147.64 12.0856 148.56 11.9496 149.52 11.9496C151.312 11.9496 152.704 12.3976 153.696 13.2936C154.704 14.1896 155.208 15.4696 155.208 17.1336V21.1416C155.208 21.4776 155.264 21.7176 155.376 21.8616C155.504 22.0056 155.704 22.0936 155.976 22.1256V24.7416C155.688 24.7896 155.424 24.8296 155.184 24.8616C154.96 24.8936 154.768 24.9096 154.608 24.9096C153.968 24.9096 153.48 24.7656 153.144 24.4776C152.824 24.1896 152.624 23.8376 152.544 23.4216L152.472 22.7736C151.928 23.4776 151.248 24.0216 150.432 24.4056C149.616 24.7896 148.784 24.9816 147.936 24.9816C147.104 24.9816 146.352 24.8136 145.68 24.4776C145.024 24.1256 144.504 23.6536 144.12 23.0616C143.752 22.4536 143.568 21.7736 143.568 21.0216ZM151.392 21.6696C151.568 21.4776 151.712 21.2856 151.824 21.0936C151.936 20.9016 151.992 20.7256 151.992 20.5656V19.2936C151.608 19.1336 151.192 19.0136 150.744 18.9336C150.296 18.8376 149.872 18.7896 149.472 18.7896C148.64 18.7896 147.952 18.9736 147.408 19.3416C146.88 19.6936 146.616 20.1656 146.616 20.7576C146.616 21.0776 146.704 21.3816 146.88 21.6696C147.056 21.9576 147.312 22.1896 147.648 22.3656C147.984 22.5416 148.384 22.6296 148.848 22.6296C149.328 22.6296 149.8 22.5416 150.264 22.3656C150.728 22.1736 151.104 21.9416 151.392 21.6696ZM166.805 24.7416L163.133 19.3176L161.429 20.9976V24.7416H158.213V7.22158H161.429V17.8296L166.493 12.1896H169.901L165.221 17.5176L170.237 24.7416H166.805ZM176.772 24.9816C175.764 24.9816 174.852 24.8136 174.036 24.4776C173.22 24.1256 172.524 23.6536 171.948 23.0616C171.372 22.4536 170.924 21.7656 170.604 20.9976C170.3 20.2136 170.148 19.3896 170.148 18.5256C170.148 17.3256 170.412 16.2296 170.94 15.2376C171.484 14.2456 172.252 13.4536 173.244 12.8616C174.252 12.2536 175.436 11.9496 176.796 11.9496C178.172 11.9496 179.348 12.2536 180.324 12.8616C181.3 13.4536 182.044 14.2456 182.556 15.2376C183.084 16.2136 183.348 17.2696 183.348 18.4056C183.348 18.5976 183.34 18.7976 183.324 19.0056C183.308 19.1976 183.292 19.3576 183.276 19.4856H173.556C173.62 20.1256 173.804 20.6856 174.108 21.1656C174.428 21.6456 174.828 22.0136 175.308 22.2696C175.804 22.5096 176.332 22.6296 176.892 22.6296C177.532 22.6296 178.132 22.4776 178.692 22.1736C179.268 21.8536 179.66 21.4376 179.868 20.9256L182.628 21.6936C182.324 22.3336 181.884 22.9016 181.308 23.3976C180.748 23.8936 180.084 24.2856 179.316 24.5736C178.548 24.8456 177.7 24.9816 176.772 24.9816ZM173.484 17.4456H180.06C179.996 16.8056 179.812 16.2536 179.508 15.7896C179.22 15.3096 178.836 14.9416 178.356 14.6856C177.876 14.4136 177.34 14.2776 176.748 14.2776C176.172 14.2776 175.644 14.4136 175.164 14.6856C174.7 14.9416 174.316 15.3096 174.012 15.7896C173.724 16.2536 173.548 16.8056 173.484 17.4456Z" fill="white"/>
</svg>