<svg width="72" height="72" viewBox="0 0 72 72" fill="none" xmlns="http://www.w3.org/2000/svg">
<rect width="72" height="72" rx="36" fill="#FFDD33"/>
<g clip-path="url(#clip0_2315_1038)">
<path fill-rule="evenodd" clip-rule="evenodd" d="M43.875 54.375C46.6598 54.375 49.3305 53.2688 51.2996 51.2996C53.2688 49.3305 54.375 46.6598 54.375 43.875C54.375 41.0902 53.2688 38.4195 51.2996 36.4504C49.3305 34.4812 46.6598 33.375 43.875 33.375C41.0902 33.375 38.4195 34.4812 36.4504 36.4504C34.4812 38.4195 33.375 41.0902 33.375 43.875C33.375 46.6598 34.4812 49.3305 36.4504 51.2996C38.4195 53.2688 41.0902 54.375 43.875 54.375ZM57 43.875C57 47.356 55.6172 50.6944 53.1558 53.1558C50.6944 55.6172 47.356 57 43.875 57C40.394 57 37.0556 55.6172 34.5942 53.1558C32.1328 50.6944 30.75 47.356 30.75 43.875C30.75 40.394 32.1328 37.0556 34.5942 34.5942C37.0556 32.1328 40.394 30.75 43.875 30.75C47.356 30.75 50.6944 32.1328 53.1558 34.5942C55.6172 37.0556 57 40.394 57 43.875Z" fill="black"/>
<path d="M39.7751 46.353C39.8985 47.9175 41.1348 49.1355 43.353 49.2825V50.4375H44.3373V49.2746C46.6342 49.1145 47.9756 47.886 47.9756 46.1063C47.9756 44.484 46.9518 43.6493 45.1143 43.2188L44.3373 43.035V39.885C45.3243 39.9979 45.9491 40.536 46.0987 41.2815H47.826C47.7026 39.7721 46.4085 38.5935 44.3373 38.4649V37.3125H43.353V38.4937C41.3921 38.6854 40.0586 39.864 40.0586 41.5335C40.0586 43.0087 41.0508 43.9485 42.702 44.3317L43.353 44.4919V47.8309C42.345 47.6786 41.6756 47.1221 41.526 46.353H39.7751ZM43.3451 42.7988C42.3765 42.5756 41.8515 42.1162 41.8515 41.4285C41.8515 40.6567 42.4185 40.0792 43.353 39.9112V42.7988H43.3451ZM44.4791 44.757C45.6577 45.03 46.1985 45.471 46.1985 46.2506C46.1985 47.1405 45.5238 47.7495 44.3373 47.8624V44.7255L44.4791 44.757Z" fill="black"/>
<path d="M17.625 15C16.9288 15 16.2611 15.2766 15.7688 15.7688C15.2766 16.2611 15 16.9288 15 17.625V38.625C15 39.3212 15.2766 39.9889 15.7688 40.4812C16.2611 40.9734 16.9288 41.25 17.625 41.25H28.3429C28.4969 40.3452 28.7226 39.4702 29.0201 38.625H22.875C22.875 37.2326 22.3219 35.8973 21.3373 34.9127C20.3527 33.9281 19.0174 33.375 17.625 33.375V22.875C19.0174 22.875 20.3527 22.3219 21.3373 21.3373C22.3219 20.3527 22.875 19.0174 22.875 17.625H49.125C49.125 19.0174 49.6781 20.3527 50.6627 21.3373C51.6473 22.3219 52.9826 22.875 54.375 22.875V32.136C55.3725 33.0285 56.2571 34.047 57 35.1653V17.625C57 16.9288 56.7234 16.2611 56.2312 15.7688C55.7389 15.2766 55.0712 15 54.375 15H17.625Z" fill="black"/>
<path d="M41.2448 28.3429L41.25 28.1251C41.2495 27.221 41.0155 26.3324 40.5707 25.5453C40.1259 24.7582 39.4854 24.0993 38.7112 23.6324C37.937 23.1655 37.0554 22.9065 36.1517 22.8804C35.248 22.8542 34.3529 23.0619 33.553 23.4833C32.7531 23.9047 32.0756 24.5255 31.5861 25.2856C31.0966 26.0457 30.8117 26.9193 30.7589 27.8218C30.7062 28.7243 30.8874 29.6252 31.285 30.4372C31.6826 31.2491 32.2832 31.9446 33.0285 32.4563C35.2975 30.299 38.158 28.8669 41.2448 28.3429Z" fill="black"/>
</g>
<defs>
<clipPath id="clip0_2315_1038">
<rect width="42" height="42" fill="white" transform="translate(15 15)"/>
</clipPath>
</defs>
</svg>
