<svg width="75" height="76" viewBox="0 0 75 76" fill="none" xmlns="http://www.w3.org/2000/svg">
<rect y="0.5" width="75" height="75" rx="36" fill="#FFDD33"/>
<path d="M23.0625 38C23.0621 35.4655 23.7289 32.9756 24.9959 30.7805C26.2629 28.5854 28.0855 26.7625 30.2803 25.4951C32.4751 24.2277 34.965 23.5604 37.4995 23.5603C40.034 23.5602 42.5238 24.2273 44.7188 25.4945C45.0201 25.6658 45.3769 25.711 45.7114 25.6202C46.0459 25.5294 46.3308 25.31 46.5041 25.0098C46.6774 24.7097 46.725 24.3531 46.6364 24.0181C46.5478 23.683 46.3303 23.3966 46.0313 23.2213C42.7785 21.3433 38.997 20.5911 35.2732 21.0813C31.5494 21.5715 28.0913 23.2767 25.4354 25.9324C22.7795 28.5882 21.074 32.0461 20.5836 35.7699C20.0932 39.4937 20.8452 43.2753 22.7229 46.5281C24.6007 49.781 27.4993 52.3234 30.9692 53.761C34.4392 55.1986 38.2865 55.4511 41.9145 54.4794C45.5426 53.5076 48.7486 51.3659 51.0355 48.3863C53.3223 45.4068 54.562 41.756 54.5625 38C54.5625 37.6519 54.4242 37.3181 54.1781 37.0719C53.932 36.8258 53.5981 36.6875 53.25 36.6875C52.9019 36.6875 52.5681 36.8258 52.3219 37.0719C52.0758 37.3181 51.9375 37.6519 51.9375 38C51.9375 41.8291 50.4164 45.5013 47.7089 48.2089C45.0013 50.9164 41.3291 52.4375 37.5 52.4375C33.671 52.4375 29.9987 50.9164 27.2912 48.2089C24.5836 45.5013 23.0625 41.8291 23.0625 38Z" fill="black"/>
<path d="M56.804 25.8042C56.926 25.6822 57.0228 25.5373 57.0888 25.3779C57.1549 25.2184 57.1889 25.0475 57.1889 24.8749C57.1889 24.7024 57.1549 24.5315 57.0888 24.372C57.0228 24.2126 56.926 24.0677 56.804 23.9457C56.6819 23.8237 56.5371 23.7269 56.3776 23.6608C56.2182 23.5948 56.0473 23.5608 55.8747 23.5608C55.7021 23.5608 55.5312 23.5948 55.3718 23.6608C55.2124 23.7269 55.0675 23.8237 54.9455 23.9457L37.4997 41.3941L30.554 34.4457C30.4319 34.3237 30.2871 34.2269 30.1276 34.1608C29.9682 34.0948 29.7973 34.0608 29.6247 34.0608C29.4521 34.0608 29.2812 34.0948 29.1218 34.1608C28.9624 34.2269 28.8175 34.3237 28.6955 34.4457C28.5734 34.5677 28.4766 34.7126 28.4106 34.872C28.3445 35.0315 28.3105 35.2024 28.3105 35.3749C28.3105 35.5475 28.3445 35.7184 28.4106 35.8779C28.4766 36.0373 28.5734 36.1822 28.6955 36.3042L36.5705 44.1792C36.6924 44.3014 36.8372 44.3984 36.9967 44.4646C37.1561 44.5307 37.3271 44.5648 37.4997 44.5648C37.6723 44.5648 37.8433 44.5307 38.0027 44.4646C38.1622 44.3984 38.307 44.3014 38.429 44.1792L56.804 25.8042Z" fill="black"/>
</svg>
