<svg width="75" height="75" viewBox="0 0 75 75" fill="none" xmlns="http://www.w3.org/2000/svg">
<rect width="75" height="75" rx="36" fill="#FFDD33"/>
<g clip-path="url(#clip0_2315_1051)">
<path d="M16.5 25.6875C16.5 24.6432 16.9148 23.6417 17.6533 22.9033C18.3917 22.1648 19.3932 21.75 20.4375 21.75H44.0625C45.1068 21.75 46.1083 22.1648 46.8467 22.9033C47.5852 23.6417 48 24.6432 48 25.6875V29.625H50.6775C51.2674 29.6255 51.8497 29.7586 52.3813 30.0144C52.9129 30.2702 53.3802 30.6422 53.7487 31.1029L57.6364 35.9591C58.1957 36.6579 58.5003 37.5263 58.5 38.4214V44.0625C58.5 45.1068 58.0852 46.1083 57.3467 46.8467C56.6083 47.5852 55.6068 48 54.5625 48H53.25C53.25 49.3924 52.6969 50.7277 51.7123 51.7123C50.7277 52.6969 49.3924 53.25 48 53.25C46.6076 53.25 45.2723 52.6969 44.2877 51.7123C43.3031 50.7277 42.75 49.3924 42.75 48H29.625C29.6265 48.6998 29.4881 49.3928 29.2179 50.0383C28.9477 50.6839 28.5512 51.2688 28.0517 51.7589C27.5522 52.249 26.9597 52.6343 26.3092 52.8921C25.6586 53.1499 24.963 53.275 24.2634 53.2601C23.5638 53.2453 22.8742 53.0907 22.2352 52.8055C21.5962 52.5202 21.0206 52.1101 20.5424 51.5993C20.0641 51.0884 19.6928 50.4871 19.4503 49.8307C19.2078 49.1742 19.099 48.476 19.1302 47.7769C18.3613 47.5062 17.6952 47.0035 17.2241 46.3382C16.753 45.6729 16.5 44.8777 16.5 44.0625V25.6875ZM19.8967 45.2595C20.3719 44.4831 21.0406 43.8436 21.8375 43.4037C22.6343 42.9638 23.5318 42.7387 24.442 42.7503C25.3521 42.7619 26.2436 43.01 27.0289 43.4702C27.8142 43.9303 28.4664 44.5867 28.9215 45.375H43.4535C43.9143 44.577 44.577 43.9143 45.375 43.4535V25.6875C45.375 25.3394 45.2367 25.0056 44.9906 24.7594C44.7444 24.5133 44.4106 24.375 44.0625 24.375H20.4375C20.0894 24.375 19.7556 24.5133 19.5094 24.7594C19.2633 25.0056 19.125 25.3394 19.125 25.6875V44.0625C19.1248 44.3151 19.1975 44.5625 19.3344 44.7748C19.4713 44.9871 19.6666 45.1554 19.8967 45.2595ZM48 42.75C48.9215 42.75 49.8269 42.9926 50.6249 43.4534C51.423 43.9142 52.0857 44.5769 52.5465 45.375H54.5625C54.9106 45.375 55.2444 45.2367 55.4906 44.9906C55.7367 44.7444 55.875 44.4106 55.875 44.0625V38.4188C55.8745 38.1209 55.7726 37.8321 55.5863 37.5998L51.7012 32.7435C51.5785 32.5898 51.4228 32.4656 51.2456 32.3802C51.0684 32.2948 50.8742 32.2503 50.6775 32.25H48V42.75ZM24.375 45.375C23.6788 45.375 23.0111 45.6516 22.5188 46.1438C22.0266 46.6361 21.75 47.3038 21.75 48C21.75 48.6962 22.0266 49.3639 22.5188 49.8562C23.0111 50.3484 23.6788 50.625 24.375 50.625C25.0712 50.625 25.7389 50.3484 26.2312 49.8562C26.7234 49.3639 27 48.6962 27 48C27 47.3038 26.7234 46.6361 26.2312 46.1438C25.7389 45.6516 25.0712 45.375 24.375 45.375ZM48 45.375C47.3038 45.375 46.6361 45.6516 46.1438 46.1438C45.6516 46.6361 45.375 47.3038 45.375 48C45.375 48.6962 45.6516 49.3639 46.1438 49.8562C46.6361 50.3484 47.3038 50.625 48 50.625C48.6962 50.625 49.3639 50.3484 49.8562 49.8562C50.3484 49.3639 50.625 48.6962 50.625 48C50.625 47.3038 50.3484 46.6361 49.8562 46.1438C49.3639 45.6516 48.6962 45.375 48 45.375Z" fill="black"/>
</g>
<defs>
<clipPath id="clip0_2315_1051">
<rect width="42" height="42" fill="white" transform="translate(16.5 16.5)"/>
</clipPath>
</defs>
</svg>
