<svg width="72" height="72" viewBox="0 0 72 72" fill="none" xmlns="http://www.w3.org/2000/svg">
<rect width="72" height="72" rx="36" fill="#FFDD33"/>
<g clip-path="url(#clip0_2315_1063)">
<path d="M18.9375 20.25C17.8932 20.25 16.8917 20.6648 16.1533 21.4033C15.4148 22.1417 15 23.1432 15 24.1875V29.4375H30.75C31.0981 29.4375 31.4319 29.5758 31.6781 29.8219C31.9242 30.0681 32.0625 30.4019 32.0625 30.75C32.0625 31.4141 32.2725 32.4405 32.8658 33.2648C33.4091 34.0208 34.3279 34.6875 36 34.6875C37.6721 34.6875 38.5909 34.0208 39.1343 33.2648C39.7275 32.4405 39.9375 31.4141 39.9375 30.75C39.9375 30.4019 40.0758 30.0681 40.3219 29.8219C40.5681 29.5758 40.9019 29.4375 41.25 29.4375H57V24.1875C57 23.1432 56.5852 22.1417 55.8467 21.4033C55.1083 20.6648 54.1068 20.25 53.0625 20.25H18.9375Z" fill="black"/>
<path d="M57 32.0625H42.4286C42.2387 33.0462 41.8423 33.9784 41.2657 34.7977C40.2341 36.231 38.5279 37.3125 36 37.3125C33.4721 37.3125 31.7659 36.231 30.7343 34.7977C30.1577 33.9784 29.7613 33.0462 29.5714 32.0625H15V47.8125C15 48.8568 15.4148 49.8583 16.1533 50.5967C16.8917 51.3352 17.8932 51.75 18.9375 51.75H53.0625C54.1068 51.75 55.1083 51.3352 55.8467 50.5967C56.5852 49.8583 57 48.8568 57 47.8125V32.0625Z" fill="black"/>
</g>
<defs>
<clipPath id="clip0_2315_1063">
<rect width="42" height="42" fill="white" transform="translate(15 15)"/>
</clipPath>
</defs>
</svg>
