<svg width="72" height="72" viewBox="0 0 72 72" fill="none" xmlns="http://www.w3.org/2000/svg">
<rect width="72" height="72" rx="36" fill="#FFDD33"/>
<path d="M51.4928 36H42.197L39.0984 40.6479H32.9012L29.8026 36H20.5068" stroke="#25282B" stroke-width="3.09859" stroke-linecap="round" stroke-linejoin="round"/>
<path d="M25.8519 25.3253L20.5068 36V45.2957C20.5068 46.1175 20.8333 46.9057 21.4144 47.4868C21.9955 48.0679 22.7836 48.3943 23.6054 48.3943H48.3942C49.216 48.3943 50.0041 48.0679 50.5852 47.4868C51.1663 46.9057 51.4928 46.1175 51.4928 45.2957V36L46.1477 25.3253C45.8912 24.8091 45.4957 24.3746 45.0058 24.0708C44.5159 23.767 43.9509 23.6059 43.3744 23.6056H28.6251C28.0487 23.6059 27.4837 23.767 26.9938 24.0708C26.5039 24.3746 26.1084 24.8091 25.8519 25.3253V25.3253Z" stroke="#25282B" stroke-width="3.09859" stroke-linecap="round" stroke-linejoin="round"/>
</svg>