<svg width="72" height="72" viewBox="0 0 72 72" fill="none" xmlns="http://www.w3.org/2000/svg">
<rect width="72" height="72" rx="36" fill="#FFDD33"/>
<g clip-path="url(#clip0_2315_1039)">
<path d="M37.3519 17.6749C36.902 17.6417 36.4511 17.625 36 17.625V15C36.5159 15.0003 37.0316 15.0195 37.5461 15.0578L37.3519 17.6749ZM42.6124 18.8561C41.7709 18.5314 40.9067 18.2691 40.0268 18.0712L40.6016 15.5093C41.6096 15.735 42.5949 16.0343 43.5574 16.407L42.6124 18.8561ZM46.2086 20.7199C45.8333 20.4696 45.4489 20.2331 45.0562 20.0111L46.3504 17.7274C47.248 18.2357 48.107 18.8095 48.9202 19.4441L47.3059 21.5153C46.95 21.2376 46.584 20.9732 46.2086 20.7225V20.7199ZM51.0229 25.4186C50.5036 24.681 49.9306 23.9826 49.3087 23.3291L51.2092 21.5179C51.9197 22.2686 52.5734 23.0649 53.1701 23.9066L51.0229 25.4186ZM52.9759 28.9676C52.8037 28.5514 52.6164 28.1416 52.4141 27.7391L54.7582 26.5579C55.2216 27.4796 55.6164 28.4342 55.9395 29.4139L53.4457 30.2355C53.3047 29.8073 53.148 29.3843 52.9759 28.9676ZM54.3671 35.5485C54.3458 34.6464 54.2581 33.7471 54.1046 32.8579L56.6902 32.4116C56.8652 33.4266 56.9667 34.4504 56.9947 35.4829L54.3671 35.5485ZM54.0232 39.5858C54.1107 39.1413 54.1816 38.695 54.2359 38.247L56.8425 38.5699C56.716 39.594 56.5142 40.6073 56.2387 41.6017L53.7083 40.9009C53.829 40.4686 53.934 40.0303 54.0232 39.5858ZM51.5242 45.8306C52.0072 45.0676 52.4325 44.2731 52.8 43.4471L55.1992 44.5102C54.7792 45.4552 54.2936 46.3635 53.7424 47.235L51.5242 45.8306ZM48.9937 48.9937C49.314 48.6735 49.6202 48.3428 49.9125 48.0015L51.9022 49.7156C51.5654 50.1064 51.2143 50.4847 50.8496 50.8496L48.9937 48.9937Z" fill="black"/>
<path d="M36.0004 17.625C32.9787 17.6252 30.0037 18.3706 27.3389 19.7952C24.6741 21.2198 22.4017 23.2795 20.723 25.792C19.0444 28.3045 18.0112 31.1923 17.7151 34.1994C17.419 37.2066 17.8691 40.2403 19.0255 43.032C20.1819 45.8237 22.0089 48.2871 24.3447 50.204C26.6805 52.121 29.4529 53.4323 32.4166 54.0219C35.3802 54.6114 38.4435 54.461 41.3351 53.584C44.2267 52.7069 46.8574 51.1303 48.9941 48.9937L50.85 50.8496C48.4081 53.2929 45.4012 55.0962 42.0957 56.0996C38.7903 57.1031 35.2884 57.2757 31.9003 56.6023C28.5122 55.9288 25.3425 54.4301 22.6721 52.2388C20.0016 50.0476 17.9129 47.2315 16.591 44.0401C15.269 40.8487 14.7547 37.3804 15.0935 33.9427C15.4323 30.505 16.6138 27.2039 18.5333 24.3319C20.4528 21.46 23.0511 19.1058 26.0979 17.478C29.1447 15.8502 32.546 14.9991 36.0004 15V17.625Z" fill="black"/>
<path d="M34.6875 22.875C35.0356 22.875 35.3694 23.0133 35.6156 23.2594C35.8617 23.5056 36 23.8394 36 24.1875V37.8638L44.526 42.7358C44.8195 42.9128 45.032 43.1976 45.1183 43.5293C45.2045 43.8609 45.1576 44.2132 44.9876 44.5108C44.8176 44.8083 44.5379 45.0276 44.2083 45.1217C43.8788 45.2157 43.5255 45.1772 43.224 45.0142L34.0365 39.7642C33.8356 39.6495 33.6686 39.4837 33.5525 39.2836C33.4363 39.0836 33.3751 38.8563 33.375 38.625V24.1875C33.375 23.8394 33.5133 23.5056 33.7594 23.2594C34.0056 23.0133 34.3394 22.875 34.6875 22.875Z" fill="black"/>
</g>
<defs>
<clipPath id="clip0_2315_1039">
<rect width="42" height="42" fill="white" transform="translate(15 15)"/>
</clipPath>
</defs>
</svg>
